<svg width="238" height="282" viewBox="0 0 238 282" fill="none" xmlns="http://www.w3.org/2000/svg">
<path d="M237.853 218.611C237.853 203.665 227.514 191.904 214.774 191.904C204.486 191.904 195.784 199.981 192.803 210.894C189.819 199.982 181.117 192.185 170.829 192.185C158.086 192.185 147.757 203.61 147.757 218.562C147.757 226.107 150.395 231.437 154.641 237.141L192.824 282L230.963 237.141C235.213 231.437 237.853 226.15 237.853 218.611Z" fill="#FABD8B"/>
<path d="M218.032 26.7067C218.032 11.7604 207.693 0 194.953 0C184.665 0 175.962 8.07665 172.981 18.9896C169.998 8.07808 161.295 0.281063 151.008 0.281063C138.265 0.281063 127.936 11.7062 127.936 26.6582C127.936 34.2027 130.574 39.5329 134.819 45.237L173.003 90.0958L211.142 45.237C215.391 39.5329 218.032 34.2455 218.032 26.7067Z" fill="#A239F9"/>
<path d="M90.0958 129.416C90.0958 114.47 79.7569 102.709 67.0166 102.709C56.729 102.709 48.0264 110.786 45.0454 121.699C42.0619 110.787 33.3593 102.99 23.0717 102.99C10.3289 102.99 0 114.415 0 129.367C0 136.912 2.63795 142.242 6.88345 147.946L45.0667 192.805L83.2061 147.946C87.4554 142.242 90.0958 136.955 90.0958 129.416Z" fill="white"/>
</svg>
