<svg width="24" height="23" viewBox="0 0 24 23" fill="none" xmlns="http://www.w3.org/2000/svg">
<path fill-rule="evenodd" clip-rule="evenodd" d="M16.2836 2.14079C15.0656 2.08771 14.6944 2.07479 11.6001 2.07479C8.4912 2.07479 8.1345 2.08914 6.9049 2.15371C5.7797 2.19245 5.17215 2.38901 4.74875 2.5454C4.24863 2.72647 3.79651 3.01737 3.42635 3.39623C3.03911 3.76707 2.74083 4.21912 2.55345 4.7191C2.39395 5.12371 2.20835 5.72632 2.15615 6.85119C2.08945 8.0564 2.08945 8.42227 2.08945 11.4856C2.08945 14.5474 2.10395 14.9147 2.15615 16.1185C2.16195 16.8502 2.2968 17.5762 2.55345 18.2635C2.7637 18.7872 3.016 19.1803 3.42635 19.5734C3.83525 19.978 4.20645 20.2277 4.76035 20.4372C5.44765 20.6897 6.17265 20.8217 6.9049 20.8289C8.1345 20.8949 8.50425 20.8949 11.6001 20.8949C14.6944 20.8949 15.0656 20.8805 16.2836 20.8289C17.4204 20.7772 18.0279 20.5936 18.4383 20.4372C18.9806 20.2277 19.3779 19.9651 19.7737 19.5734C20.1841 19.1674 20.4219 18.7872 20.6466 18.2506C20.9033 17.5676 21.0381 16.8459 21.0439 16.1185C21.0976 14.9133 21.1106 14.5474 21.1106 11.4841C21.1106 8.42227 21.0961 8.05497 21.0309 6.85119C20.9917 5.72632 20.7931 5.12371 20.6336 4.70619C20.4507 4.21079 20.1566 3.76291 19.7737 3.39623C19.3962 3.01764 18.9414 2.72317 18.4397 2.53249C18.0279 2.37466 17.4218 2.19245 16.2836 2.14079ZM6.81065 0.0718381C8.0533 0.0201859 8.4506 0.00727287 11.5986 0.00727287C13.1936 -0.0128141 14.7915 0.00870764 16.3865 0.0718381C17.3493 0.091925 18.302 0.272708 19.2039 0.608447C19.9753 0.898782 20.6744 1.34994 21.2542 1.93132C21.8487 2.50092 22.3098 3.19392 22.6027 3.9601C22.9362 4.85253 23.116 5.79519 23.1319 6.74645C23.2001 7.97749 23.2001 8.35627 23.2001 11.4856C23.2001 14.599 23.1856 14.9922 23.1334 16.2089C23.0812 17.4399 22.8825 18.2778 22.5911 18.9966C22.3011 19.7571 21.9038 20.397 21.2571 21.0383C20.679 21.6224 19.9787 22.074 19.2053 22.3612C18.4658 22.6353 17.6176 22.8447 16.388 22.8978C15.1453 22.9495 14.7611 22.9624 11.6001 22.9624C8.45205 22.9624 8.05475 22.9495 6.8121 22.8835C5.58105 22.8447 4.7357 22.6482 3.99475 22.3612C3.22699 22.0638 2.52913 21.6136 1.94445 21.0383C1.35667 20.4576 0.897431 19.7624 0.59595 18.9966C0.3306 18.2649 0.1189 17.4399 0.0667001 16.2089C0.0130501 14.9936 0 14.5876 0 11.4841C0 8.38353 -1.22765e-07 7.9904 0.0797499 6.74645C0.1189 5.52975 0.31755 4.69184 0.609 3.9601C0.918562 3.20569 1.3714 2.51701 1.943 1.93132C2.52776 1.35268 3.226 0.898586 3.99475 0.596969C4.73425 0.334403 5.5796 0.12349 6.81065 0.0718381ZM7.4298 6.9674C7.98027 6.41067 8.63687 5.9675 9.3616 5.66355C10.0863 5.3596 10.8648 5.2009 11.6519 5.19665C12.439 5.19239 13.2192 5.34266 13.9472 5.63875C14.6753 5.93484 15.3367 6.37089 15.8933 6.92163C16.4499 7.47238 16.8906 8.12689 17.1898 8.84729C17.489 9.56769 17.6409 10.3397 17.6365 11.1185C17.6323 11.8973 17.4719 12.6677 17.1648 13.3848C16.8575 14.102 16.4097 14.7516 15.8471 15.2963C14.7267 16.3809 13.2192 16.9846 11.6519 16.9761C10.0846 16.9676 8.58384 16.3476 7.47554 15.2511C6.36725 14.1544 5.74083 12.6694 5.73226 11.1185C5.7237 9.56763 6.33368 8.07598 7.4298 6.9674ZM10.1587 14.6736C11.1067 15.0621 12.1718 15.0621 13.1197 14.6735C14.0676 14.2851 14.8208 13.5398 15.2135 12.6018C15.606 11.6637 15.606 10.6098 15.2133 9.67188C14.8206 8.73388 14.0676 7.98866 13.1197 7.60014C12.1716 7.21162 11.1065 7.21163 10.1586 7.60017C9.21068 7.98872 8.45755 8.73396 8.0649 9.67197C7.67227 10.61 7.67228 11.6639 8.06494 12.6018C8.4576 13.5399 9.21076 14.2851 10.1587 14.6736ZM18.7457 6.14814C18.6166 6.27579 18.4634 6.37705 18.2948 6.44613C18.1264 6.51522 17.9457 6.55078 17.7632 6.55078C17.5808 6.55078 17.4001 6.51522 17.2316 6.44613C17.063 6.37705 16.9098 6.27579 16.7809 6.14814C16.6519 6.02049 16.5496 5.86893 16.4797 5.70215C16.4098 5.53536 16.374 5.3566 16.374 5.17608C16.374 4.99554 16.4098 4.81678 16.4797 4.64999C16.5496 4.48321 16.6519 4.33166 16.7809 4.20401C17.0414 3.94619 17.3948 3.80136 17.7632 3.80136C18.1317 3.80136 18.4851 3.94619 18.7457 4.20401C19.0061 4.46182 19.1525 4.81147 19.1525 5.17608C19.1525 5.54067 19.0061 5.89032 18.7457 6.14814Z" fill="white"/>
</svg>
