<svg width="1920" height="156" viewBox="0 0 1920 156" fill="none" xmlns="http://www.w3.org/2000/svg">
<path d="M-47.0725 40.8172C-47.0725 38.0382 -49.2787 35.785 -52 35.785V0C-29.9266 0 -12.0326 18.2745 -12.0326 40.8172V115.183C-12.0326 117.962 -9.82647 120.215 -7.10513 120.215C-4.38369 120.215 -2.17759 117.962 -2.17759 115.183V40.8172C-2.17759 18.2745 15.7164 0 37.7902 0C59.8633 0 77.7571 18.2745 77.7571 40.8172V115.183C77.7571 117.962 79.9637 120.215 82.6847 120.215C85.4058 120.215 87.6124 117.962 87.6124 115.183V40.8172C87.6124 18.2745 105.506 0 127.579 0C149.653 0 167.547 18.2745 167.547 40.8172V115.183C167.547 117.962 169.753 120.215 172.475 120.215C175.196 120.215 177.403 117.962 177.403 115.183V40.8172C177.403 18.2745 195.296 0 217.369 0V35.785C214.648 35.785 212.442 38.0382 212.442 40.8172V115.183C212.442 137.725 194.548 156 172.475 156C150.401 156 132.507 137.725 132.507 115.183V40.8172C132.507 38.0382 130.301 35.785 127.579 35.785C124.858 35.785 122.652 38.0382 122.652 40.8172V115.183C122.652 137.725 104.758 156 82.6847 156C60.6116 156 42.7178 137.725 42.7178 115.183V40.8172C42.7178 38.0382 40.5112 35.785 37.7902 35.785C35.0681 35.785 32.8625 38.0382 32.8625 40.8172V115.183C32.8625 137.725 14.9683 156 -7.10513 156C-29.1785 156 -47.0725 137.725 -47.0725 115.183V40.8172Z" fill="#5B91F6"/>
<path d="M222.297 40.8172C222.297 38.0382 220.091 35.785 217.369 35.785V0C239.443 0 257.337 18.2745 257.337 40.8172V115.183C257.337 117.962 259.543 120.215 262.264 120.215C264.986 120.215 267.192 117.962 267.192 115.183V40.8172C267.192 18.2745 285.086 0 307.16 0C329.233 0 347.126 18.2745 347.126 40.8172V115.183C347.126 117.962 349.333 120.215 352.054 120.215C354.775 120.215 356.982 117.962 356.982 115.183V40.8172C356.982 18.2745 374.876 0 396.949 0C419.023 0 436.917 18.2745 436.917 40.8172V115.183C436.917 117.962 439.122 120.215 441.844 120.215C444.565 120.215 446.772 117.962 446.772 115.183V40.8172C446.772 18.2745 464.666 0 486.739 0V35.785C484.018 35.785 481.811 38.0382 481.811 40.8172V115.183C481.811 137.725 463.917 156 441.844 156C419.77 156 401.876 137.725 401.876 115.183V40.8172C401.876 38.0382 399.671 35.785 396.949 35.785C394.228 35.785 392.021 38.0382 392.021 40.8172V115.183C392.021 137.725 374.127 156 352.054 156C329.981 156 312.087 137.725 312.087 115.183V40.8172C312.087 38.0382 309.881 35.785 307.16 35.785C304.437 35.785 302.232 38.0382 302.232 40.8172V115.183C302.232 137.725 284.338 156 262.264 156C240.191 156 222.297 137.725 222.297 115.183V40.8172Z" fill="#5B91F6"/>
<path d="M476.928 40.8172C476.928 38.0382 474.721 35.785 472 35.785V0C494.073 0 511.967 18.2745 511.967 40.8172V115.183C511.967 117.962 514.174 120.215 516.895 120.215C519.616 120.215 521.822 117.962 521.822 115.183V40.8172C521.822 18.2745 539.716 0 561.79 0C583.863 0 601.757 18.2745 601.757 40.8172V115.183C601.757 117.962 603.964 120.215 606.685 120.215C609.406 120.215 611.612 117.962 611.612 115.183V40.8172C611.612 18.2745 629.506 0 651.579 0C673.653 0 691.547 18.2745 691.547 40.8172V115.183C691.547 117.962 693.753 120.215 696.475 120.215C699.196 120.215 701.403 117.962 701.403 115.183V40.8172C701.403 18.2745 719.296 0 741.369 0V35.785C738.648 35.785 736.442 38.0382 736.442 40.8172V115.183C736.442 137.725 718.548 156 696.475 156C674.401 156 656.507 137.725 656.507 115.183V40.8172C656.507 38.0382 654.301 35.785 651.579 35.785C648.858 35.785 646.652 38.0382 646.652 40.8172V115.183C646.652 137.725 628.758 156 606.685 156C584.612 156 566.718 137.725 566.718 115.183V40.8172C566.718 38.0382 564.511 35.785 561.79 35.785C559.068 35.785 556.863 38.0382 556.863 40.8172V115.183C556.863 137.725 538.968 156 516.895 156C494.821 156 476.928 137.725 476.928 115.183V40.8172Z" fill="#5B91F6"/>
<path d="M745.928 40.8172C745.928 38.0382 743.721 35.785 741 35.785V0C763.073 0 780.967 18.2745 780.967 40.8172V115.183C780.967 117.962 783.174 120.215 785.895 120.215C788.616 120.215 790.822 117.962 790.822 115.183V40.8172C790.822 18.2745 808.716 0 830.79 0C852.863 0 870.757 18.2745 870.757 40.8172V115.183C870.757 117.962 872.964 120.215 875.685 120.215C878.406 120.215 880.612 117.962 880.612 115.183V40.8172C880.612 18.2745 898.506 0 920.579 0C942.653 0 960.547 18.2745 960.547 40.8172V115.183C960.547 117.962 962.753 120.215 965.475 120.215C968.196 120.215 970.403 117.962 970.403 115.183V40.8172C970.403 18.2745 988.296 0 1010.37 0V35.785C1007.65 35.785 1005.44 38.0382 1005.44 40.8172V115.183C1005.44 137.725 987.548 156 965.475 156C943.401 156 925.507 137.725 925.507 115.183V40.8172C925.507 38.0382 923.301 35.785 920.579 35.785C917.858 35.785 915.652 38.0382 915.652 40.8172V115.183C915.652 137.725 897.758 156 875.685 156C853.612 156 835.718 137.725 835.718 115.183V40.8172C835.718 38.0382 833.511 35.785 830.79 35.785C828.068 35.785 825.863 38.0382 825.863 40.8172V115.183C825.863 137.725 807.968 156 785.895 156C763.821 156 745.928 137.725 745.928 115.183V40.8172Z" fill="#5B91F6"/>
<path d="M1014.93 40.8172C1014.93 38.0382 1012.72 35.785 1010 35.785V0C1032.07 0 1049.97 18.2745 1049.97 40.8172V115.183C1049.97 117.962 1052.17 120.215 1054.89 120.215C1057.62 120.215 1059.82 117.962 1059.82 115.183V40.8172C1059.82 18.2745 1077.72 0 1099.79 0C1121.86 0 1139.76 18.2745 1139.76 40.8172V115.183C1139.76 117.962 1141.96 120.215 1144.68 120.215C1147.41 120.215 1149.61 117.962 1149.61 115.183V40.8172C1149.61 18.2745 1167.51 0 1189.58 0C1211.65 0 1229.55 18.2745 1229.55 40.8172V115.183C1229.55 117.962 1231.75 120.215 1234.47 120.215C1237.2 120.215 1239.4 117.962 1239.4 115.183V40.8172C1239.4 18.2745 1257.3 0 1279.37 0V35.785C1276.65 35.785 1274.44 38.0382 1274.44 40.8172V115.183C1274.44 137.725 1256.55 156 1234.47 156C1212.4 156 1194.51 137.725 1194.51 115.183V40.8172C1194.51 38.0382 1192.3 35.785 1189.58 35.785C1186.86 35.785 1184.65 38.0382 1184.65 40.8172V115.183C1184.65 137.725 1166.76 156 1144.68 156C1122.61 156 1104.72 137.725 1104.72 115.183V40.8172C1104.72 38.0382 1102.51 35.785 1099.79 35.785C1097.07 35.785 1094.86 38.0382 1094.86 40.8172V115.183C1094.86 137.725 1076.97 156 1054.89 156C1032.82 156 1014.93 137.725 1014.93 115.183V40.8172Z" fill="#5B91F6"/>
<path d="M1281.93 40.8172C1281.93 38.0382 1279.72 35.785 1277 35.785V0C1299.07 0 1316.97 18.2745 1316.97 40.8172V115.183C1316.97 117.962 1319.17 120.215 1321.89 120.215C1324.62 120.215 1326.82 117.962 1326.82 115.183V40.8172C1326.82 18.2745 1344.72 0 1366.79 0C1388.86 0 1406.76 18.2745 1406.76 40.8172V115.183C1406.76 117.962 1408.96 120.215 1411.68 120.215C1414.41 120.215 1416.61 117.962 1416.61 115.183V40.8172C1416.61 18.2745 1434.51 0 1456.58 0C1478.65 0 1496.55 18.2745 1496.55 40.8172V115.183C1496.55 117.962 1498.75 120.215 1501.47 120.215C1504.2 120.215 1506.4 117.962 1506.4 115.183V40.8172C1506.4 18.2745 1524.3 0 1546.37 0V35.785C1543.65 35.785 1541.44 38.0382 1541.44 40.8172V115.183C1541.44 137.725 1523.55 156 1501.47 156C1479.4 156 1461.51 137.725 1461.51 115.183V40.8172C1461.51 38.0382 1459.3 35.785 1456.58 35.785C1453.86 35.785 1451.65 38.0382 1451.65 40.8172V115.183C1451.65 137.725 1433.76 156 1411.68 156C1389.61 156 1371.72 137.725 1371.72 115.183V40.8172C1371.72 38.0382 1369.51 35.785 1366.79 35.785C1364.07 35.785 1361.86 38.0382 1361.86 40.8172V115.183C1361.86 137.725 1343.97 156 1321.89 156C1299.82 156 1281.93 137.725 1281.93 115.183V40.8172Z" fill="#5B91F6"/>
<path d="M1550.93 40.8172C1550.93 38.0382 1548.72 35.785 1546 35.785V0C1568.07 0 1585.97 18.2745 1585.97 40.8172V115.183C1585.97 117.962 1588.17 120.215 1590.89 120.215C1593.62 120.215 1595.82 117.962 1595.82 115.183V40.8172C1595.82 18.2745 1613.72 0 1635.79 0C1657.86 0 1675.76 18.2745 1675.76 40.8172V115.183C1675.76 117.962 1677.96 120.215 1680.68 120.215C1683.41 120.215 1685.61 117.962 1685.61 115.183V40.8172C1685.61 18.2745 1703.51 0 1725.58 0C1747.65 0 1765.55 18.2745 1765.55 40.8172V115.183C1765.55 117.962 1767.75 120.215 1770.47 120.215C1773.2 120.215 1775.4 117.962 1775.4 115.183V40.8172C1775.4 18.2745 1793.3 0 1815.37 0V35.785C1812.65 35.785 1810.44 38.0382 1810.44 40.8172V115.183C1810.44 137.725 1792.55 156 1770.47 156C1748.4 156 1730.51 137.725 1730.51 115.183V40.8172C1730.51 38.0382 1728.3 35.785 1725.58 35.785C1722.86 35.785 1720.65 38.0382 1720.65 40.8172V115.183C1720.65 137.725 1702.76 156 1680.68 156C1658.61 156 1640.72 137.725 1640.72 115.183V40.8172C1640.72 38.0382 1638.51 35.785 1635.79 35.785C1633.07 35.785 1630.86 38.0382 1630.86 40.8172V115.183C1630.86 137.725 1612.97 156 1590.89 156C1568.82 156 1550.93 137.725 1550.93 115.183V40.8172Z" fill="#5B91F6"/>
<path d="M1817.93 40.8172C1817.93 38.0382 1815.72 35.785 1813 35.785V0C1835.07 0 1852.97 18.2745 1852.97 40.8172V115.183C1852.97 117.962 1855.17 120.215 1857.89 120.215C1860.62 120.215 1862.82 117.962 1862.82 115.183V40.8172C1862.82 18.2745 1880.72 0 1902.79 0C1924.86 0 1942.76 18.2745 1942.76 40.8172V115.183C1942.76 117.962 1944.96 120.215 1947.68 120.215C1950.41 120.215 1952.61 117.962 1952.61 115.183V40.8172C1952.61 18.2745 1970.51 0 1992.58 0C2014.65 0 2032.55 18.2745 2032.55 40.8172V115.183C2032.55 117.962 2034.75 120.215 2037.47 120.215C2040.2 120.215 2042.4 117.962 2042.4 115.183V40.8172C2042.4 18.2745 2060.3 0 2082.37 0V35.785C2079.65 35.785 2077.44 38.0382 2077.44 40.8172V115.183C2077.44 137.725 2059.55 156 2037.47 156C2015.4 156 1997.51 137.725 1997.51 115.183V40.8172C1997.51 38.0382 1995.3 35.785 1992.58 35.785C1989.86 35.785 1987.65 38.0382 1987.65 40.8172V115.183C1987.65 137.725 1969.76 156 1947.68 156C1925.61 156 1907.72 137.725 1907.72 115.183V40.8172C1907.72 38.0382 1905.51 35.785 1902.79 35.785C1900.07 35.785 1897.86 38.0382 1897.86 40.8172V115.183C1897.86 137.725 1879.97 156 1857.89 156C1835.82 156 1817.93 137.725 1817.93 115.183V40.8172Z" fill="#5B91F6"/>
</svg>
