<svg width="63" height="74" viewBox="0 0 63 74" fill="none" xmlns="http://www.w3.org/2000/svg">
<path d="M30.1829 1.39176C30.2993 0.230436 31.7216 0.230436 31.838 1.39176L32.8137 11.1342C34.0736 23.7143 42.445 33.6328 53.0628 35.1255L61.2857 36.2815C62.266 36.4194 62.266 38.1046 61.2857 38.2425L53.0628 39.3985C42.445 40.8911 34.0736 50.8096 32.8137 63.3896L31.838 73.1321C31.7216 74.2936 30.2993 74.2936 30.1829 73.1321L29.2072 63.3896C27.9474 50.8096 19.5759 40.8911 8.958 39.3985L0.735139 38.2425C-0.245046 38.1046 -0.245046 36.4194 0.735139 36.2815L8.958 35.1255C19.5759 33.6328 27.9474 23.7143 29.2072 11.1342L30.1829 1.39176Z" fill="#F24AB2"/>
</svg>
