<svg width="23" height="26" viewBox="0 0 23 26" fill="none" xmlns="http://www.w3.org/2000/svg">
<path d="M12.1753 0H16.6963C16.6963 0 16.4373 5.68989 22.9581 6.10813V10.5028C22.9581 10.5028 19.47 10.7119 16.6947 8.62562L16.7409 17.7133C16.7412 19.3404 16.2502 20.9309 15.3301 22.2838C14.41 23.6367 13.102 24.691 11.5718 25.3132C10.0415 25.9355 8.35779 26.0978 6.73362 25.7796C5.10943 25.4615 3.61783 24.6772 2.44756 23.5258C1.27731 22.3745 0.480971 20.9079 0.159353 19.3118C-0.162263 17.7158 0.00528681 16.0617 0.640804 14.5591C1.27632 13.0567 2.35123 11.7731 3.72952 10.871C5.1078 9.96887 6.72751 9.4887 8.38366 9.49126H9.55185V14.0059C8.78977 13.774 7.97266 13.7841 7.21678 14.0348C6.46092 14.2856 5.80482 14.7643 5.34187 15.4025C4.87893 16.0409 4.63272 16.8065 4.63828 17.5902C4.64385 18.3741 4.90092 19.1361 5.37291 19.768C5.84488 20.3999 6.50773 20.8696 7.26709 21.11C8.02645 21.3503 8.84364 21.3493 9.60234 21.1069C10.361 20.8644 11.0226 20.3932 11.4929 19.7601C11.9631 19.1268 12.2181 18.364 12.2215 17.5803L12.1753 0Z" fill="white"/>
</svg>
