<svg width="50" height="50" viewBox="0 0 50 50" fill="none" xmlns="http://www.w3.org/2000/svg">
<path fill-rule="evenodd" clip-rule="evenodd" d="M25 0C27.1375 0 29.33 0.0550002 31.455 0.145L33.965 0.265L36.3675 0.4075L38.6175 0.56L40.6725 0.72C42.903 0.889728 45.002 1.84109 46.5999 3.4065C48.1978 4.97192 49.192 7.05099 49.4075 9.2775L49.5075 10.34L49.695 12.615C49.87 14.9725 50 17.5425 50 20C50 22.4575 49.87 25.0275 49.695 27.385L49.5075 29.66L49.4075 30.7225C49.1919 32.9494 48.1973 35.0288 46.5989 36.5942C45.0005 38.1597 42.9009 39.1108 40.67 39.28L38.62 39.4375L36.37 39.5925L33.965 39.735L31.455 39.855C29.3046 39.9481 27.1524 39.9965 25 40C22.8476 39.9965 20.6954 39.9481 18.545 39.855L16.035 39.735L13.6325 39.5925L11.3825 39.4375L9.3275 39.28C7.09703 39.1103 4.998 38.1589 3.40011 36.5935C1.80222 35.0281 0.807977 32.949 0.5925 30.7225L0.4925 29.66L0.305 27.385C0.114582 24.9278 0.0128491 22.4645 0 20C0 17.5425 0.13 14.9725 0.305 12.615L0.4925 10.34L0.5925 9.2775C0.807893 7.05138 1.80178 4.97263 3.39916 3.40726C4.99654 1.8419 7.09498 0.890291 9.325 0.72L11.3775 0.56L13.6275 0.4075L16.0325 0.265L18.5425 0.145C20.6938 0.051818 22.8467 0.00347395 25 0ZM20 13.9375V26.0625C20 27.2175 21.25 27.9375 22.25 27.3625L32.75 21.3C32.9785 21.1685 33.1683 20.9791 33.3002 20.7508C33.4322 20.5226 33.5017 20.2636 33.5017 20C33.5017 19.7364 33.4322 19.4774 33.3002 19.2492C33.1683 19.0209 32.9785 18.8315 32.75 18.7L22.25 12.64C22.0219 12.5083 21.7631 12.439 21.4998 12.439C21.2364 12.4391 20.9776 12.5085 20.7496 12.6402C20.5215 12.772 20.3322 12.9615 20.2006 13.1897C20.069 13.4178 19.9998 13.6766 20 13.94V13.9375Z" fill="white"/>
</svg>
