<svg width="30" height="22" viewBox="0 0 30 22" fill="none" xmlns="http://www.w3.org/2000/svg">
<path d="M29.155 3.30909C29.75 5.62545 29.75 10.5289 29.75 10.5289C29.75 10.5289 29.75 15.4324 29.155 17.7487C28.9894 18.4011 28.6535 18.9966 28.1826 19.4728C27.7116 19.9491 27.1226 20.2887 26.4775 20.4562C24.1868 21.0578 14.875 21.0578 14.875 21.0578C14.875 21.0578 5.56325 21.0578 3.2725 20.4562C2.62732 20.2887 2.03845 19.9491 1.56744 19.4728C1.09645 18.9966 0.760598 18.4011 0.595 17.7487C9.48256e-08 15.4324 0 10.5289 0 10.5289C0 10.5289 9.48256e-08 5.62545 0.595 3.30909C0.768521 2.66062 1.10703 2.06944 1.5768 1.59441C2.04656 1.11939 2.6312 0.777113 3.2725 0.601652C5.56325 9.58857e-08 14.875 0 14.875 0C14.875 0 24.1868 9.58857e-08 26.4775 0.601652C27.1188 0.777113 27.7035 1.11939 28.1733 1.59441C28.643 2.06944 28.9814 2.66062 29.155 3.30909ZM11.9 15.0413L19.635 10.5289L11.9 6.01652V15.0413Z" fill="white"/>
</svg>
