<svg width="258" height="230" viewBox="0 0 258 230" fill="none" xmlns="http://www.w3.org/2000/svg">
<path d="M207.059 1.39359C207.245 -0.46453 209.521 -0.46453 209.707 1.39359L211.269 16.9815C213.284 37.1097 226.679 52.9793 243.667 55.3676L256.824 57.2172C258.392 57.4378 258.392 60.1341 256.824 60.3547L243.667 62.2043C226.679 64.5926 213.284 80.4622 211.269 100.59L209.707 116.178C209.521 118.036 207.245 118.036 207.059 116.178L205.498 100.59C203.482 80.4622 190.088 64.5926 173.099 62.2043L159.943 60.3547C158.375 60.1341 158.375 57.4378 159.943 57.2172L173.099 55.3676C190.088 52.9793 203.482 37.1097 205.498 16.9815L207.059 1.39359Z" fill="#F24AB2"/>
<path d="M30.1829 60.3918C30.2993 59.2304 31.7216 59.2304 31.838 60.3918L32.8137 70.1342C34.0736 82.7143 42.445 92.6328 53.0628 94.1255L61.2857 95.2815C62.266 95.4194 62.266 97.1046 61.2857 97.2425L53.0628 98.3985C42.445 99.8911 34.0736 109.81 32.8137 122.39L31.838 132.132C31.7216 133.294 30.2993 133.294 30.1829 132.132L29.2072 122.39C27.9474 109.81 19.5759 99.8911 8.958 98.3985L0.735139 97.2425C-0.245046 97.1046 -0.245046 95.4194 0.735139 95.2815L8.958 94.1255C19.5759 92.6328 27.9474 82.7143 29.2072 70.1342L30.1829 60.3918Z" fill="#F24AB2"/>
<path d="M179.378 161.019C179.488 159.916 180.84 159.916 180.95 161.019L181.877 170.274C183.074 182.226 191.027 191.648 201.114 193.066L208.925 194.164C209.857 194.295 209.857 195.896 208.925 196.027L201.114 197.126C191.027 198.544 183.074 207.966 181.877 219.917L180.95 229.172C180.84 230.276 179.488 230.276 179.378 229.172L178.451 219.917C177.254 207.966 169.301 198.544 159.214 197.126L151.402 196.027C150.471 195.896 150.471 194.295 151.402 194.164L159.214 193.066C169.301 191.648 177.254 182.226 178.451 170.274L179.378 161.019Z" fill="#F24AB2"/>
</svg>
