<svg width="37" height="37" viewBox="0 0 37 37" fill="none" xmlns="http://www.w3.org/2000/svg">
<path fill-rule="evenodd" clip-rule="evenodd" d="M9.83308 7.91423V9.23327H6.02093C4.17912 9.23327 2.63661 10.5066 2.44283 12.1862L0.0197084 33.2908C-0.0329935 33.7504 0.0202889 34.2151 0.1761 34.6546C0.331911 35.0942 0.58677 35.4988 0.924148 35.8422C1.26153 36.1856 1.67389 36.4602 2.13449 36.6481C2.59509 36.8361 3.09364 36.9332 3.5978 36.9331H33.3353C33.8395 36.9332 34.338 36.8361 34.7986 36.6481C35.2592 36.4602 35.6716 36.1856 36.0089 35.8422C36.3463 35.4988 36.6012 35.0942 36.757 34.6546C36.9128 34.2151 36.9661 33.7504 36.9134 33.2908L34.4903 12.1862C34.3973 11.3756 33.9803 10.6254 33.3195 10.0801C32.6588 9.53483 31.8012 9.23315 30.9122 9.23327H27.1V7.91423C27.1 5.81525 26.1904 3.80223 24.5713 2.31803C22.9522 0.833819 20.7563 0 18.4665 0C16.1768 0 13.9809 0.833819 12.3618 2.31803C10.7427 3.80223 9.83308 5.81525 9.83308 7.91423ZM18.4665 2.63808C16.9401 2.63808 15.4761 3.19396 14.3967 4.18343C13.3173 5.1729 12.7109 6.51491 12.7109 7.91423V9.23327H24.2222V7.91423C24.2222 6.51491 23.6158 5.1729 22.5364 4.18343C21.457 3.19396 19.993 2.63808 18.4665 2.63808ZM12.7109 17.1475C12.7109 18.5468 13.3173 19.8888 14.3967 20.8783C15.4761 21.8678 16.9401 22.4237 18.4665 22.4237C19.993 22.4237 21.457 21.8678 22.5364 20.8783C23.6158 19.8888 24.2222 18.5468 24.2222 17.1475V15.8285C24.2222 15.4786 24.3738 15.1431 24.6436 14.8958C24.9135 14.6484 25.2795 14.5094 25.6611 14.5094C26.0427 14.5094 26.4087 14.6484 26.6786 14.8958C26.9484 15.1431 27.1 15.4786 27.1 15.8285V17.1475C27.1 19.2465 26.1904 21.2595 24.5713 22.7437C22.9522 24.2279 20.7563 25.0617 18.4665 25.0617C16.1768 25.0617 13.9809 24.2279 12.3618 22.7437C10.7427 21.2595 9.83308 19.2465 9.83308 17.1475V15.8285C9.83308 15.4786 9.98468 15.1431 10.2545 14.8958C10.5244 14.6484 10.8904 14.5094 11.272 14.5094C11.6536 14.5094 12.0196 14.6484 12.2895 14.8958C12.5593 15.1431 12.7109 15.4786 12.7109 15.8285V17.1475Z" fill="white"/>
</svg>
