<svg width="21" height="21" viewBox="0 0 21 21" fill="none" xmlns="http://www.w3.org/2000/svg">
<rect width="21" height="21" fill="#B7B7B7"/>
<g id="Mockup celu" clip-path="url(#clip0_198_512)">
<rect width="393" height="4166" transform="translate(-349 -59)" fill="black"/>
<g id="Inicio">
<rect id="fondo negro" x="-351" y="-23" width="393" height="66.9024" fill="#262626"/>
</g>
<path id="Cartera" fill-rule="evenodd" clip-rule="evenodd" d="M5.48886 4.41775V5.15405H3.3609C2.3328 5.15405 1.47176 5.86481 1.3636 6.80236L0.0110013 18.583C-0.0184171 18.8396 0.0113254 19.099 0.0982996 19.3443C0.185274 19.5897 0.327537 19.8155 0.515863 20.0072C0.704189 20.1989 0.93437 20.3522 1.19148 20.4571C1.44859 20.562 1.72688 20.6162 2.0083 20.6162H18.6079C18.8893 20.6162 19.1676 20.562 19.4247 20.4571C19.6818 20.3522 19.912 20.1989 20.1003 20.0072C20.2886 19.8155 20.4309 19.5897 20.5179 19.3443C20.6049 19.099 20.6346 18.8396 20.6052 18.583L19.2526 6.80236C19.2007 6.34993 18.9679 5.93113 18.5991 5.62675C18.2303 5.32238 17.7515 5.15398 17.2553 5.15405H15.1273V4.41775C15.1273 3.24609 14.6196 2.12242 13.7158 1.29393C12.812 0.465441 11.5862 0 10.3081 0C9.02995 0 7.80416 0.465441 6.90038 1.29393C5.9966 2.12242 5.48886 3.24609 5.48886 4.41775ZM10.3081 1.47258C9.456 1.47258 8.63881 1.78288 8.03628 2.3352C7.43376 2.88753 7.09527 3.63665 7.09527 4.41775V5.15405H13.5209V4.41775C13.5209 3.63665 13.1824 2.88753 12.5799 2.3352C11.9774 1.78288 11.1602 1.47258 10.3081 1.47258ZM7.09527 9.5718C7.09527 10.3529 7.43376 11.102 8.03628 11.6543C8.63881 12.2067 9.456 12.517 10.3081 12.517C11.1602 12.517 11.9774 12.2067 12.5799 11.6543C13.1824 11.102 13.5209 10.3529 13.5209 9.5718V8.83551C13.5209 8.64023 13.6055 8.45295 13.7562 8.31487C13.9068 8.17679 14.1111 8.09922 14.3241 8.09922C14.5371 8.09922 14.7414 8.17679 14.8921 8.31487C15.0427 8.45295 15.1273 8.64023 15.1273 8.83551V9.5718C15.1273 10.7435 14.6196 11.8671 13.7158 12.6956C12.812 13.5241 11.5862 13.9896 10.3081 13.9896C9.02995 13.9896 7.80416 13.5241 6.90038 12.6956C5.9966 11.8671 5.48886 10.7435 5.48886 9.5718V8.83551C5.48886 8.64023 5.57348 8.45295 5.72411 8.31487C5.87474 8.17679 6.07904 8.09922 6.29207 8.09922C6.50509 8.09922 6.70939 8.17679 6.86002 8.31487C7.01065 8.45295 7.09527 8.64023 7.09527 8.83551V9.5718Z" fill="white"/>
</g>
<defs>
<clipPath id="clip0_198_512">
<rect width="393" height="4166" fill="white" transform="translate(-349 -59)"/>
</clipPath>
</defs>
</svg>
