<svg width="22" height="22" viewBox="0 0 22 22" fill="none" xmlns="http://www.w3.org/2000/svg">
<rect width="22" height="22" fill="#B7B7B7"/>
<g id="Mockup celu" clip-path="url(#clip0_198_512)">
<rect width="393" height="4166" transform="translate(-270 -58)" fill="black"/>
<g id="Inicio">
<rect id="fondo negro" x="-272" y="-22" width="393" height="66.9024" fill="#262626"/>
</g>
<path id="Vector" d="M10.8808 10.8808C14.315 10.8808 17.0983 8.44534 17.0983 5.44038C17.0983 2.43542 14.315 0 10.8808 0C7.44652 0 4.66318 2.43542 4.66318 5.44038C4.66318 8.44534 7.44652 10.8808 10.8808 10.8808ZM15.2331 12.2409H14.4219C13.3435 12.6744 12.1437 12.9209 10.8808 12.9209C9.61782 12.9209 8.42288 12.6744 7.33966 12.2409H6.52846C2.92421 12.2409 0 14.7995 0 17.9533V19.7214C0 20.8477 1.04436 21.7615 2.33159 21.7615H19.4299C20.7172 21.7615 21.7615 20.8477 21.7615 19.7214V17.9533C21.7615 14.7995 18.8373 12.2409 15.2331 12.2409Z" fill="white"/>
</g>
<defs>
<clipPath id="clip0_198_512">
<rect width="393" height="4166" fill="white" transform="translate(-270 -58)"/>
</clipPath>
</defs>
</svg>
