<svg width="121" height="181" viewBox="0 0 121 181" fill="none" xmlns="http://www.w3.org/2000/svg">
<path d="M83.0433 1.67544C83.1366 0.62902 84.2769 0.62902 84.3703 1.67544L85.1525 10.454C86.1626 21.7894 92.8745 30.7265 101.388 32.0715L107.98 33.1131C108.766 33.2374 108.766 34.7558 107.98 34.8801L101.388 35.9217C92.8745 37.2667 86.1626 46.2038 85.1525 57.5392L84.3703 66.3177C84.2769 67.3642 83.1366 67.3642 83.0433 66.3177L82.261 57.5392C81.2509 46.2038 74.539 37.2667 66.0259 35.9217L59.4332 34.8801C58.6473 34.7558 58.6473 33.2374 59.4332 33.1131L66.0259 32.0715C74.539 30.7265 81.2509 21.7894 82.261 10.454L83.0433 1.67544Z" fill="#F24AB2"/>
<path d="M24.1995 78.2926C24.2928 77.2462 25.4332 77.2462 25.5265 78.2926L26.3088 87.0711C27.3189 98.4066 34.0308 107.344 42.5438 108.689L49.1366 109.73C49.9225 109.855 49.9225 111.373 49.1366 111.497L42.5438 112.539C34.0308 113.884 27.3189 122.821 26.3088 134.156L25.5265 142.935C25.4332 143.981 24.2928 143.981 24.1995 142.935L23.4172 134.156C22.4071 122.821 15.6952 113.884 7.18219 112.539L0.589406 111.497C-0.196469 111.373 -0.196469 109.855 0.589406 109.73L7.18219 108.689C15.6952 107.344 22.4071 98.4066 23.4172 87.0711L24.1995 78.2926Z" fill="#F24AB2"/>
<path d="M95.4729 115.183C95.5663 114.137 96.7066 114.137 96.8 115.183L97.5822 123.962C98.5923 135.297 105.304 144.234 113.817 145.579L120.41 146.621C121.196 146.745 121.196 148.264 120.41 148.388L113.817 149.43C105.304 150.775 98.5923 159.712 97.5822 171.047L96.8 179.826C96.7066 180.872 95.5663 180.872 95.4729 179.826L94.6907 171.047C93.6806 159.712 86.9687 150.775 78.4556 149.43L71.8628 148.388C71.077 148.264 71.077 146.745 71.8628 146.621L78.4556 145.579C86.9687 144.234 93.6806 135.297 94.6907 123.962L95.4729 115.183Z" fill="#F24AB2"/>
</svg>
