<svg width="19" height="19" viewBox="0 0 19 19" fill="none" xmlns="http://www.w3.org/2000/svg">
<path fill-rule="evenodd" clip-rule="evenodd" d="M9.51648 0.774902C10.2749 0.774902 11.0529 0.794419 11.807 0.826354L12.6976 0.868935L13.5501 0.919499L14.3485 0.973612L15.0777 1.03039C15.8691 1.09061 16.614 1.42819 17.181 1.98366C17.7479 2.53913 18.1007 3.27687 18.1772 4.06692L18.2127 4.44393L18.2792 5.25119C18.3413 6.08772 18.3874 6.99966 18.3874 7.87168C18.3874 8.74369 18.3413 9.65563 18.2792 10.4922L18.2127 11.2994L18.1772 11.6764C18.1007 12.4666 17.7478 13.2045 17.1806 13.76C16.6134 14.3154 15.8684 14.6529 15.0768 14.713L14.3494 14.7689L13.551 14.8239L12.6976 14.8744L11.807 14.917C11.0439 14.95 10.2802 14.9672 9.51648 14.9684C8.75271 14.9672 7.98905 14.95 7.22599 14.917L6.33535 14.8744L5.48285 14.8239L4.68446 14.7689L3.95527 14.713C3.16381 14.6527 2.41899 14.3152 1.852 13.7597C1.28501 13.2042 0.932209 12.4665 0.85575 11.6764L0.820266 11.2994L0.753734 10.4922C0.686166 9.62025 0.650067 8.74619 0.645508 7.87168C0.645508 6.99966 0.691637 6.08772 0.753734 5.25119L0.820266 4.44393L0.85575 4.06692C0.93218 3.27701 1.28485 2.53938 1.85166 1.98393C2.41847 1.42848 3.16308 1.09081 3.95438 1.03039L4.68269 0.973612L5.48107 0.919499L6.33446 0.868935L7.22511 0.826354C7.98846 0.793289 8.75241 0.776135 9.51648 0.774902ZM7.74228 5.72047V10.0229C7.74228 10.4327 8.18583 10.6882 8.54067 10.4842L12.2665 8.33297C12.3476 8.2863 12.4149 8.21909 12.4617 8.1381C12.5085 8.05712 12.5332 7.96522 12.5332 7.87168C12.5332 7.77813 12.5085 7.68623 12.4617 7.60525C12.4149 7.52427 12.3476 7.45705 12.2665 7.41039L8.54067 5.26006C8.45973 5.21333 8.36792 5.18874 8.27446 5.18875C8.181 5.18877 8.08919 5.21339 8.00826 5.26015C7.92734 5.3069 7.86015 5.37414 7.81346 5.45511C7.76677 5.53607 7.74222 5.62789 7.74228 5.72135V5.72047Z" fill="white"/>
</svg>
