<svg width="17" height="18" viewBox="0 0 17 18" fill="none" xmlns="http://www.w3.org/2000/svg">
<path fill-rule="evenodd" clip-rule="evenodd" d="M4.08092 1.62842C3.27593 1.62842 2.50388 1.94812 1.93456 2.51723C1.36523 3.08634 1.04523 3.85826 1.04492 4.66325V12.7593C1.04492 13.5644 1.36479 14.3367 1.93415 14.906C2.50351 15.4754 3.27572 15.7953 4.08092 15.7953H12.1769C12.9819 15.7949 13.7538 15.4749 14.3229 14.9056C14.8921 14.3363 15.2118 13.5642 15.2118 12.7593V4.66325C15.2114 3.85846 14.8916 3.08672 14.3225 2.51764C13.7535 1.94857 12.9817 1.62873 12.1769 1.62842H4.08092ZM13.0502 4.66792C13.0502 4.89983 12.9581 5.12224 12.7941 5.28623C12.6301 5.45021 12.4077 5.54234 12.1758 5.54234C11.9438 5.54234 11.7214 5.45021 11.5574 5.28623C11.3935 5.12224 11.3013 4.89983 11.3013 4.66792C11.3013 4.436 11.3935 4.21359 11.5574 4.0496C11.7214 3.88562 11.9438 3.79349 12.1758 3.79349C12.4077 3.79349 12.6301 3.88562 12.7941 4.0496C12.9581 4.21359 13.0502 4.436 13.0502 4.66792ZM8.13009 6.28618C7.48692 6.28618 6.87009 6.54168 6.41531 6.99647C5.96052 7.45126 5.70502 8.06808 5.70502 8.71125C5.70502 9.35442 5.96052 9.97124 6.41531 10.426C6.87009 10.8808 7.48692 11.1363 8.13009 11.1363C8.77326 11.1363 9.39008 10.8808 9.84487 10.426C10.2997 9.97124 10.5552 9.35442 10.5552 8.71125C10.5552 8.06808 10.2997 7.45126 9.84487 6.99647C9.39008 6.54168 8.77326 6.28618 8.13009 6.28618ZM4.53795 8.71125C4.53795 7.75887 4.91629 6.84549 5.58972 6.17205C6.26316 5.49862 7.17654 5.12028 8.12892 5.12028C9.08131 5.12028 9.99468 5.49862 10.6681 6.17205C11.3416 6.84549 11.7199 7.75887 11.7199 8.71125C11.7199 9.66364 11.3416 10.577 10.6681 11.2505C9.99468 11.9239 9.08131 12.3022 8.12892 12.3022C7.17654 12.3022 6.26316 11.9239 5.58972 11.2505C4.91629 10.577 4.53795 9.66364 4.53795 8.71125Z" fill="white"/>
</svg>
