<svg width="392" height="46" viewBox="0 0 392 46" fill="none" xmlns="http://www.w3.org/2000/svg">
<path d="M0.199829 12.0359C0.199829 11.2164 -0.337368 10.552 -1 10.552V0C4.37476 0 8.73186 5.38864 8.73186 12.0359V33.9641C8.73186 34.7836 9.26903 35.448 9.93166 35.448C10.5943 35.448 11.1315 34.7836 11.1315 33.9641V12.0359C11.1315 5.38864 15.4886 0 20.8634 0C26.2381 0 30.5952 5.38864 30.5952 12.0359V33.9641C30.5952 34.7836 31.1325 35.448 31.795 35.448C32.4576 35.448 32.9949 34.7836 32.9949 33.9641V12.0359C32.9949 5.38864 37.3519 0 42.7266 0C48.1015 0 52.4586 5.38864 52.4586 12.0359V33.9641C52.4586 34.7836 52.9956 35.448 53.6584 35.448C54.321 35.448 54.8583 34.7836 54.8583 33.9641V12.0359C54.8583 5.38864 59.2153 0 64.59 0V10.552C63.9275 10.552 63.3902 11.2164 63.3902 12.0359V33.9641C63.3902 40.6113 59.0331 46 53.6584 46C48.2835 46 43.9265 40.6113 43.9265 33.9641V12.0359C43.9265 11.2164 43.3894 10.552 42.7266 10.552C42.064 10.552 41.5267 11.2164 41.5267 12.0359V33.9641C41.5267 40.6113 37.1697 46 31.795 46C26.4203 46 22.0633 40.6113 22.0633 33.9641V12.0359C22.0633 11.2164 21.526 10.552 20.8634 10.552C20.2006 10.552 19.6636 11.2164 19.6636 12.0359V33.9641C19.6636 40.6113 15.3064 46 9.93166 46C4.55691 46 0.199829 40.6113 0.199829 33.9641V12.0359Z" fill="#5B91F6"/>
<path d="M65.7897 12.0359C65.7897 11.2164 65.2525 10.552 64.5898 10.552V0C69.9646 0 74.3217 5.38864 74.3217 12.0359V33.9641C74.3217 34.7836 74.8589 35.448 75.5215 35.448C76.1842 35.448 76.7213 34.7836 76.7213 33.9641V12.0359C76.7213 5.38864 81.0784 0 86.4533 0C91.828 0 96.185 5.38864 96.185 12.0359V33.9641C96.185 34.7836 96.7223 35.448 97.3849 35.448C98.0474 35.448 98.5847 34.7836 98.5847 33.9641V12.0359C98.5847 5.38864 102.942 0 108.316 0C113.691 0 118.048 5.38864 118.048 12.0359V33.9641C118.048 34.7836 118.585 35.448 119.248 35.448C119.911 35.448 120.448 34.7836 120.448 33.9641V12.0359C120.448 5.38864 124.805 0 130.18 0V10.552C129.517 10.552 128.98 11.2164 128.98 12.0359V33.9641C128.98 40.6113 124.623 46 119.248 46C113.873 46 109.516 40.6113 109.516 33.9641V12.0359C109.516 11.2164 108.979 10.552 108.316 10.552C107.654 10.552 107.117 11.2164 107.117 12.0359V33.9641C107.117 40.6113 102.76 46 97.3849 46C92.0102 46 87.6531 40.6113 87.6531 33.9641V12.0359C87.6531 11.2164 87.1158 10.552 86.4533 10.552C85.7905 10.552 85.2534 11.2164 85.2534 12.0359V33.9641C85.2534 40.6113 80.8963 46 75.5215 46C70.1467 46 65.7897 40.6113 65.7897 33.9641V12.0359Z" fill="#5B91F6"/>
<path d="M131.38 12.0359C131.38 11.2164 130.842 10.552 130.18 10.552V0C135.554 0 139.912 5.38864 139.912 12.0359V33.9641C139.912 34.7836 140.449 35.448 141.111 35.448C141.774 35.448 142.311 34.7836 142.311 33.9641V12.0359C142.311 5.38864 146.668 0 152.043 0C157.418 0 161.775 5.38864 161.775 12.0359V33.9641C161.775 34.7836 162.312 35.448 162.975 35.448C163.637 35.448 164.175 34.7836 164.175 33.9641V12.0359C164.175 5.38864 168.532 0 173.906 0C179.281 0 183.638 5.38864 183.638 12.0359V33.9641C183.638 34.7836 184.175 35.448 184.838 35.448C185.501 35.448 186.038 34.7836 186.038 33.9641V12.0359C186.038 5.38864 190.395 0 195.77 0V10.552C195.107 10.552 194.57 11.2164 194.57 12.0359V33.9641C194.57 40.6113 190.213 46 184.838 46C179.463 46 175.106 40.6113 175.106 33.9641V12.0359C175.106 11.2164 174.569 10.552 173.906 10.552C173.244 10.552 172.706 11.2164 172.706 12.0359V33.9641C172.706 40.6113 168.349 46 162.975 46C157.6 46 153.243 40.6113 153.243 33.9641V12.0359C153.243 11.2164 152.706 10.552 152.043 10.552C151.38 10.552 150.843 11.2164 150.843 12.0359V33.9641C150.843 40.6113 146.486 46 141.111 46C135.737 46 131.38 40.6113 131.38 33.9641V12.0359Z" fill="#5B91F6"/>
<path d="M196.969 12.0359C196.969 11.2164 196.432 10.552 195.77 10.552V0C201.144 0 205.501 5.38864 205.501 12.0359V33.9641C205.501 34.7836 206.039 35.448 206.701 35.448C207.364 35.448 207.901 34.7836 207.901 33.9641V12.0359C207.901 5.38864 212.258 0 217.633 0C223.008 0 227.365 5.38864 227.365 12.0359V33.9641C227.365 34.7836 227.902 35.448 228.565 35.448C229.227 35.448 229.764 34.7836 229.764 33.9641V12.0359C229.764 5.38864 234.121 0 239.496 0C244.871 0 249.228 5.38864 249.228 12.0359V33.9641C249.228 34.7836 249.765 35.448 250.428 35.448C251.091 35.448 251.628 34.7836 251.628 33.9641V12.0359C251.628 5.38864 255.985 0 261.36 0V10.552C260.697 10.552 260.16 11.2164 260.16 12.0359V33.9641C260.16 40.6113 255.803 46 250.428 46C245.053 46 240.696 40.6113 240.696 33.9641V12.0359C240.696 11.2164 240.159 10.552 239.496 10.552C238.834 10.552 238.296 11.2164 238.296 12.0359V33.9641C238.296 40.6113 233.939 46 228.565 46C223.19 46 218.833 40.6113 218.833 33.9641V12.0359C218.833 11.2164 218.296 10.552 217.633 10.552C216.97 10.552 216.433 11.2164 216.433 12.0359V33.9641C216.433 40.6113 212.076 46 206.701 46C201.326 46 196.969 40.6113 196.969 33.9641V12.0359Z" fill="#5B91F6"/>
<path d="M262.559 12.0359C262.559 11.2164 262.022 10.552 261.359 10.552V0C266.734 0 271.091 5.38864 271.091 12.0359V33.9641C271.091 34.7836 271.628 35.448 272.291 35.448C272.954 35.448 273.491 34.7836 273.491 33.9641V12.0359C273.491 5.38864 277.848 0 283.223 0C288.597 0 292.955 5.38864 292.955 12.0359V33.9641C292.955 34.7836 293.492 35.448 294.154 35.448C294.817 35.448 295.354 34.7836 295.354 33.9641V12.0359C295.354 5.38864 299.711 0 305.086 0C310.461 0 314.818 5.38864 314.818 12.0359V33.9641C314.818 34.7836 315.355 35.448 316.018 35.448C316.68 35.448 317.218 34.7836 317.218 33.9641V12.0359C317.218 5.38864 321.575 0 326.949 0V10.552C326.287 10.552 325.75 11.2164 325.75 12.0359V33.9641C325.75 40.6113 321.392 46 316.018 46C310.643 46 306.286 40.6113 306.286 33.9641V12.0359C306.286 11.2164 305.749 10.552 305.086 10.552C304.423 10.552 303.886 11.2164 303.886 12.0359V33.9641C303.886 40.6113 299.529 46 294.154 46C288.78 46 284.423 40.6113 284.423 33.9641V12.0359C284.423 11.2164 283.885 10.552 283.223 10.552C282.56 10.552 282.023 11.2164 282.023 12.0359V33.9641C282.023 40.6113 277.666 46 272.291 46C266.916 46 262.559 40.6113 262.559 33.9641V12.0359Z" fill="#5B91F6"/>
<path d="M327.61 12.0359C327.61 11.2164 327.073 10.552 326.41 10.552V0C331.785 0 336.142 5.38864 336.142 12.0359V33.9641C336.142 34.7836 336.679 35.448 337.342 35.448C338.004 35.448 338.542 34.7836 338.542 33.9641V12.0359C338.542 5.38864 342.899 0 348.274 0C353.648 0 358.005 5.38864 358.005 12.0359V33.9641C358.005 34.7836 358.543 35.448 359.205 35.448C359.868 35.448 360.405 34.7836 360.405 33.9641V12.0359C360.405 5.38864 364.762 0 370.137 0C375.512 0 379.869 5.38864 379.869 12.0359V33.9641C379.869 34.7836 380.406 35.448 381.069 35.448C381.731 35.448 382.268 34.7836 382.268 33.9641V12.0359C382.268 5.38864 386.625 0 392 0V10.552C391.338 10.552 390.8 11.2164 390.8 12.0359V33.9641C390.8 40.6113 386.443 46 381.069 46C375.694 46 371.337 40.6113 371.337 33.9641V12.0359C371.337 11.2164 370.8 10.552 370.137 10.552C369.474 10.552 368.937 11.2164 368.937 12.0359V33.9641C368.937 40.6113 364.58 46 359.205 46C353.83 46 349.473 40.6113 349.473 33.9641V12.0359C349.473 11.2164 348.936 10.552 348.274 10.552C347.611 10.552 347.074 11.2164 347.074 12.0359V33.9641C347.074 40.6113 342.717 46 337.342 46C331.967 46 327.61 40.6113 327.61 33.9641V12.0359Z" fill="#5B91F6"/>
</svg>
