<svg width="21" height="20" viewBox="0 0 21 20" fill="none" xmlns="http://www.w3.org/2000/svg">
<rect width="21" height="20" fill="#B7B7B7"/>
<g id="Mockup celu" clip-path="url(#clip0_198_512)">
<rect width="393" height="4166" transform="translate(-310 -60)" fill="black"/>
<g id="Inicio">
<rect id="fondo negro" x="-312" y="-24" width="393" height="66.9024" fill="#262626"/>
</g>
<path id="Vector" d="M9.93277 18.9352L9.92537 18.9321L9.90211 18.9194C9.76604 18.8445 9.63105 18.7677 9.49719 18.6889C7.88787 17.7326 6.38391 16.6093 5.01026 15.3375C2.57755 13.0676 0 9.6992 0 5.55059C0 2.45499 2.60504 7.50125e-05 5.74927 7.50125e-05C6.62335 -0.0042062 7.48714 0.188624 8.27642 0.564224C9.06569 0.939824 9.76013 1.48853 10.3081 2.16953C10.8562 1.48839 11.5508 0.9396 12.3402 0.563994C13.1297 0.188388 13.9937 -0.0043654 14.868 7.50125e-05C18.0111 7.50125e-05 20.6162 2.45499 20.6162 5.55059C20.6162 9.70025 18.0386 13.0686 15.6059 15.3364C14.2323 16.6082 12.7283 17.7316 11.119 18.6879C10.9851 18.767 10.8502 18.8442 10.7141 18.9194L10.6908 18.9321L10.6834 18.9363L10.6802 18.9374C10.5656 18.9981 10.4378 19.0298 10.3081 19.0298C10.1784 19.0298 10.0506 18.9981 9.93594 18.9374L9.93277 18.9352Z" fill="white"/>
</g>
<defs>
<clipPath id="clip0_198_512">
<rect width="393" height="4166" fill="white" transform="translate(-310 -60)"/>
</clipPath>
</defs>
</svg>
