<svg width="19" height="19" viewBox="0 0 19 19" fill="none" xmlns="http://www.w3.org/2000/svg">
<path fill-rule="evenodd" clip-rule="evenodd" d="M3.78544 2.49658C3.60899 2.49658 3.43976 2.56668 3.31499 2.69145C3.19021 2.81622 3.12012 2.98545 3.12012 3.1619V13.6548C3.12012 13.8312 3.19021 14.0005 3.31499 14.1252C3.43976 14.25 3.60899 14.3201 3.78544 14.3201H6.82818V16.56C6.82847 16.6622 6.85897 16.7619 6.91585 16.8468C6.97273 16.9316 7.05344 16.9977 7.14782 17.0368C7.2422 17.0758 7.34602 17.086 7.44621 17.0662C7.5464 17.0463 7.63848 16.9973 7.71084 16.9252L10.3167 14.3201H13.749C13.9254 14.32 14.0945 14.2498 14.2192 14.1249L16.2314 12.1127C16.3562 11.9881 16.4264 11.8189 16.4266 11.6426V3.1619C16.4266 2.98545 16.3565 2.81622 16.2317 2.69145C16.1069 2.56668 15.9377 2.49658 15.7612 2.49658H3.78544ZM9.19599 6.34067C9.19599 6.19362 9.13758 6.0526 9.0336 5.94862C8.92962 5.84465 8.7886 5.78623 8.64156 5.78623C8.49451 5.78623 8.35349 5.84465 8.24951 5.94862C8.14553 6.0526 8.08712 6.19362 8.08712 6.34067V9.49873C8.08712 9.64578 8.14553 9.7868 8.24951 9.89078C8.35349 9.99476 8.49451 10.0532 8.64156 10.0532C8.7886 10.0532 8.92962 9.99476 9.0336 9.89078C9.13758 9.7868 9.19599 9.64578 9.19599 9.49873V6.34067ZM12.9041 6.34067C12.9041 6.19362 12.8456 6.0526 12.7417 5.94862C12.6377 5.84465 12.4967 5.78623 12.3496 5.78623C12.2026 5.78623 12.0616 5.84465 11.9576 5.94862C11.8536 6.0526 11.7952 6.19362 11.7952 6.34067V9.49873C11.7952 9.64578 11.8536 9.7868 11.9576 9.89078C12.0616 9.99476 12.2026 10.0532 12.3496 10.0532C12.4967 10.0532 12.6377 9.99476 12.7417 9.89078C12.8456 9.7868 12.9041 9.64578 12.9041 9.49873V6.34067Z" fill="white"/>
</svg>
