<svg width="46" height="46" viewBox="0 0 46 46" fill="none" xmlns="http://www.w3.org/2000/svg">
<path fill-rule="evenodd" clip-rule="evenodd" d="M11.1385 2.58594C8.8699 2.58594 6.69414 3.48692 5.08967 5.09077C3.48521 6.69462 2.58339 8.87003 2.58252 11.1387V33.9547C2.58252 36.2238 3.48395 38.4001 5.08851 40.0047C6.69307 41.6092 8.86933 42.5107 11.1385 42.5107H33.9545C36.2231 42.5098 38.3985 41.608 40.0024 40.0035C41.6062 38.399 42.5072 36.2233 42.5072 33.9547V11.1387C42.5064 8.8706 41.605 6.69569 40.0012 5.09193C38.3975 3.48817 36.2226 2.58681 33.9545 2.58594H11.1385ZM36.4155 11.1518C36.4155 11.8054 36.1559 12.4322 35.6937 12.8943C35.2316 13.3565 34.6048 13.6161 33.9512 13.6161C33.2977 13.6161 32.6709 13.3565 32.2087 12.8943C31.7466 12.4322 31.4869 11.8054 31.4869 11.1518C31.4869 10.4982 31.7466 9.87142 32.2087 9.40928C32.6709 8.94714 33.2977 8.68751 33.9512 8.68751C34.6048 8.68751 35.2316 8.94714 35.6937 9.40928C36.1559 9.87142 36.4155 10.4982 36.4155 11.1518ZM22.5498 15.7124C20.7372 15.7124 18.9989 16.4324 17.7172 17.7141C16.4356 18.9958 15.7155 20.7341 15.7155 22.5467C15.7155 24.3592 16.4356 26.0975 17.7172 27.3792C18.9989 28.6609 20.7372 29.3809 22.5498 29.3809C24.3624 29.3809 26.1007 28.6609 27.3824 27.3792C28.6641 26.0975 29.3841 24.3592 29.3841 22.5467C29.3841 20.7341 28.6641 18.9958 27.3824 17.7141C26.1007 16.4324 24.3624 15.7124 22.5498 15.7124ZM12.4265 22.5467C12.4265 19.8627 13.4927 17.2886 15.3906 15.3907C17.2885 13.4929 19.8625 12.4267 22.5465 12.4267C25.2305 12.4267 27.8046 13.4929 29.7024 15.3907C31.6003 17.2886 32.6665 19.8627 32.6665 22.5467C32.6665 25.2306 31.6003 27.8047 29.7024 29.7026C27.8046 31.6004 25.2305 32.6667 22.5465 32.6667C19.8625 32.6667 17.2885 31.6004 15.3906 29.7026C13.4927 27.8047 12.4265 25.2306 12.4265 22.5467Z" fill="white"/>
</svg>
