<svg width="1920" height="156" viewBox="0 0 1920 156" fill="none" xmlns="http://www.w3.org/2000/svg">
<path d="M-47.0725 40.8172C-47.0725 38.0382 -49.2787 35.785 -52 35.785V0C-29.9266 0 -12.0326 18.2745 -12.0326 40.8172V115.183C-12.0326 117.962 -9.82647 120.215 -7.10513 120.215C-4.38369 120.215 -2.17759 117.962 -2.17759 115.183V40.8172C-2.17759 18.2745 15.7164 0 37.7902 0C59.8633 0 77.7571 18.2745 77.7571 40.8172V115.183C77.7571 117.962 79.9637 120.215 82.6847 120.215C85.4058 120.215 87.6124 117.962 87.6124 115.183V40.8172C87.6124 18.2745 105.506 0 127.579 0C149.653 0 167.547 18.2745 167.547 40.8172V115.183C167.547 117.962 169.753 120.215 172.475 120.215C175.196 120.215 177.403 117.962 177.403 115.183V40.8172C177.403 18.2745 195.296 0 217.369 0V35.785C214.648 35.785 212.442 38.0382 212.442 40.8172V115.183C212.442 137.725 194.548 156 172.475 156C150.401 156 132.507 137.725 132.507 115.183V40.8172C132.507 38.0382 130.301 35.785 127.579 35.785C124.858 35.785 122.652 38.0382 122.652 40.8172V115.183C122.652 137.725 104.758 156 82.6847 156C60.6116 156 42.7178 137.725 42.7178 115.183V40.8172C42.7178 38.0382 40.5112 35.785 37.7902 35.785C35.0681 35.785 32.8625 38.0382 32.8625 40.8172V115.183C32.8625 137.725 14.9683 156 -7.10513 156C-29.1785 156 -47.0725 137.725 -47.0725 115.183V40.8172Z" fill="#5B91F6"/>
<path d="M222.297 40.8172C222.297 38.0382 220.091 35.785 217.37 35.785V0C239.443 0 257.337 18.2745 257.337 40.8172V115.183C257.337 117.962 259.543 120.215 262.265 120.215C264.986 120.215 267.192 117.962 267.192 115.183V40.8172C267.192 18.2745 285.086 0 307.16 0C329.233 0 347.127 18.2745 347.127 40.8172V115.183C347.127 117.962 349.333 120.215 352.054 120.215C354.775 120.215 356.982 117.962 356.982 115.183V40.8172C356.982 18.2745 374.876 0 396.949 0C419.023 0 436.917 18.2745 436.917 40.8172V115.183C436.917 117.962 439.122 120.215 441.845 120.215C444.566 120.215 446.772 117.962 446.772 115.183V40.8172C446.772 18.2745 464.666 0 486.739 0V35.785C484.018 35.785 481.811 38.0382 481.811 40.8172V115.183C481.811 137.725 463.918 156 441.845 156C419.77 156 401.877 137.725 401.877 115.183V40.8172C401.877 38.0382 399.671 35.785 396.949 35.785C394.228 35.785 392.021 38.0382 392.021 40.8172V115.183C392.021 137.725 374.127 156 352.054 156C329.981 156 312.087 137.725 312.087 115.183V40.8172C312.087 38.0382 309.881 35.785 307.16 35.785C304.438 35.785 302.232 38.0382 302.232 40.8172V115.183C302.232 137.725 284.338 156 262.265 156C240.191 156 222.297 137.725 222.297 115.183V40.8172Z" fill="#5B91F6"/>
<path d="M489.928 40.8172C489.928 38.0382 487.721 35.785 485 35.785V0C507.073 0 524.967 18.2745 524.967 40.8172V115.183C524.967 117.962 527.174 120.215 529.895 120.215C532.616 120.215 534.822 117.962 534.822 115.183V40.8172C534.822 18.2745 552.716 0 574.79 0C596.863 0 614.757 18.2745 614.757 40.8172V115.183C614.757 117.962 616.964 120.215 619.685 120.215C622.406 120.215 624.612 117.962 624.612 115.183V40.8172C624.612 18.2745 642.506 0 664.579 0C686.653 0 704.547 18.2745 704.547 40.8172V115.183C704.547 117.962 706.753 120.215 709.475 120.215C712.196 120.215 714.403 117.962 714.403 115.183V40.8172C714.403 18.2745 732.296 0 754.369 0V35.785C751.648 35.785 749.442 38.0382 749.442 40.8172V115.183C749.442 137.725 731.548 156 709.475 156C687.401 156 669.507 137.725 669.507 115.183V40.8172C669.507 38.0382 667.301 35.785 664.579 35.785C661.858 35.785 659.652 38.0382 659.652 40.8172V115.183C659.652 137.725 641.758 156 619.685 156C597.612 156 579.718 137.725 579.718 115.183V40.8172C579.718 38.0382 577.511 35.785 574.79 35.785C572.068 35.785 569.863 38.0382 569.863 40.8172V115.183C569.863 137.725 551.968 156 529.895 156C507.821 156 489.928 137.725 489.928 115.183V40.8172Z" fill="#5B91F6"/>
<path d="M758.928 40.8172C758.928 38.0382 756.721 35.785 754 35.785V0C776.073 0 793.967 18.2745 793.967 40.8172V115.183C793.967 117.962 796.174 120.215 798.895 120.215C801.616 120.215 803.822 117.962 803.822 115.183V40.8172C803.822 18.2745 821.716 0 843.79 0C865.863 0 883.757 18.2745 883.757 40.8172V115.183C883.757 117.962 885.964 120.215 888.685 120.215C891.406 120.215 893.612 117.962 893.612 115.183V40.8172C893.612 18.2745 911.506 0 933.579 0C955.653 0 973.547 18.2745 973.547 40.8172V115.183C973.547 117.962 975.753 120.215 978.475 120.215C981.196 120.215 983.403 117.962 983.403 115.183V40.8172C983.403 18.2745 1001.3 0 1023.37 0V35.785C1020.65 35.785 1018.44 38.0382 1018.44 40.8172V115.183C1018.44 137.725 1000.55 156 978.475 156C956.401 156 938.507 137.725 938.507 115.183V40.8172C938.507 38.0382 936.301 35.785 933.579 35.785C930.858 35.785 928.652 38.0382 928.652 40.8172V115.183C928.652 137.725 910.758 156 888.685 156C866.612 156 848.718 137.725 848.718 115.183V40.8172C848.718 38.0382 846.511 35.785 843.79 35.785C841.068 35.785 838.863 38.0382 838.863 40.8172V115.183C838.863 137.725 820.968 156 798.895 156C776.821 156 758.928 137.725 758.928 115.183V40.8172Z" fill="#5B91F6"/>
<path d="M1026.93 40.8172C1026.93 38.0382 1024.72 35.785 1022 35.785V0C1044.07 0 1061.97 18.2745 1061.97 40.8172V115.183C1061.97 117.962 1064.17 120.215 1066.89 120.215C1069.62 120.215 1071.82 117.962 1071.82 115.183V40.8172C1071.82 18.2745 1089.72 0 1111.79 0C1133.86 0 1151.76 18.2745 1151.76 40.8172V115.183C1151.76 117.962 1153.96 120.215 1156.68 120.215C1159.41 120.215 1161.61 117.962 1161.61 115.183V40.8172C1161.61 18.2745 1179.51 0 1201.58 0C1223.65 0 1241.55 18.2745 1241.55 40.8172V115.183C1241.55 117.962 1243.75 120.215 1246.47 120.215C1249.2 120.215 1251.4 117.962 1251.4 115.183V40.8172C1251.4 18.2745 1269.3 0 1291.37 0V35.785C1288.65 35.785 1286.44 38.0382 1286.44 40.8172V115.183C1286.44 137.725 1268.55 156 1246.47 156C1224.4 156 1206.51 137.725 1206.51 115.183V40.8172C1206.51 38.0382 1204.3 35.785 1201.58 35.785C1198.86 35.785 1196.65 38.0382 1196.65 40.8172V115.183C1196.65 137.725 1178.76 156 1156.68 156C1134.61 156 1116.72 137.725 1116.72 115.183V40.8172C1116.72 38.0382 1114.51 35.785 1111.79 35.785C1109.07 35.785 1106.86 38.0382 1106.86 40.8172V115.183C1106.86 137.725 1088.97 156 1066.89 156C1044.82 156 1026.93 137.725 1026.93 115.183V40.8172Z" fill="#5B91F6"/>
<path d="M1295.93 40.8172C1295.93 38.0382 1293.72 35.785 1291 35.785V0C1313.07 0 1330.97 18.2745 1330.97 40.8172V115.183C1330.97 117.962 1333.17 120.215 1335.89 120.215C1338.62 120.215 1340.82 117.962 1340.82 115.183V40.8172C1340.82 18.2745 1358.72 0 1380.79 0C1402.86 0 1420.76 18.2745 1420.76 40.8172V115.183C1420.76 117.962 1422.96 120.215 1425.68 120.215C1428.41 120.215 1430.61 117.962 1430.61 115.183V40.8172C1430.61 18.2745 1448.51 0 1470.58 0C1492.65 0 1510.55 18.2745 1510.55 40.8172V115.183C1510.55 117.962 1512.75 120.215 1515.47 120.215C1518.2 120.215 1520.4 117.962 1520.4 115.183V40.8172C1520.4 18.2745 1538.3 0 1560.37 0V35.785C1557.65 35.785 1555.44 38.0382 1555.44 40.8172V115.183C1555.44 137.725 1537.55 156 1515.47 156C1493.4 156 1475.51 137.725 1475.51 115.183V40.8172C1475.51 38.0382 1473.3 35.785 1470.58 35.785C1467.86 35.785 1465.65 38.0382 1465.65 40.8172V115.183C1465.65 137.725 1447.76 156 1425.68 156C1403.61 156 1385.72 137.725 1385.72 115.183V40.8172C1385.72 38.0382 1383.51 35.785 1380.79 35.785C1378.07 35.785 1375.86 38.0382 1375.86 40.8172V115.183C1375.86 137.725 1357.97 156 1335.89 156C1313.82 156 1295.93 137.725 1295.93 115.183V40.8172Z" fill="#5B91F6"/>
<path d="M1564.93 40.8172C1564.93 38.0382 1562.72 35.785 1560 35.785V0C1582.07 0 1599.97 18.2745 1599.97 40.8172V115.183C1599.97 117.962 1602.17 120.215 1604.89 120.215C1607.62 120.215 1609.82 117.962 1609.82 115.183V40.8172C1609.82 18.2745 1627.72 0 1649.79 0C1671.86 0 1689.76 18.2745 1689.76 40.8172V115.183C1689.76 117.962 1691.96 120.215 1694.68 120.215C1697.41 120.215 1699.61 117.962 1699.61 115.183V40.8172C1699.61 18.2745 1717.51 0 1739.58 0C1761.65 0 1779.55 18.2745 1779.55 40.8172V115.183C1779.55 117.962 1781.75 120.215 1784.47 120.215C1787.2 120.215 1789.4 117.962 1789.4 115.183V40.8172C1789.4 18.2745 1807.3 0 1829.37 0V35.785C1826.65 35.785 1824.44 38.0382 1824.44 40.8172V115.183C1824.44 137.725 1806.55 156 1784.47 156C1762.4 156 1744.51 137.725 1744.51 115.183V40.8172C1744.51 38.0382 1742.3 35.785 1739.58 35.785C1736.86 35.785 1734.65 38.0382 1734.65 40.8172V115.183C1734.65 137.725 1716.76 156 1694.68 156C1672.61 156 1654.72 137.725 1654.72 115.183V40.8172C1654.72 38.0382 1652.51 35.785 1649.79 35.785C1647.07 35.785 1644.86 38.0382 1644.86 40.8172V115.183C1644.86 137.725 1626.97 156 1604.89 156C1582.82 156 1564.93 137.725 1564.93 115.183V40.8172Z" fill="#5B91F6"/>
<path d="M1833.93 40.8172C1833.93 38.0382 1831.72 35.785 1829 35.785V0C1851.07 0 1868.97 18.2745 1868.97 40.8172V115.183C1868.97 117.962 1871.17 120.215 1873.89 120.215C1876.62 120.215 1878.82 117.962 1878.82 115.183V40.8172C1878.82 18.2745 1896.72 0 1918.79 0C1940.86 0 1958.76 18.2745 1958.76 40.8172V115.183C1958.76 117.962 1960.96 120.215 1963.68 120.215C1966.41 120.215 1968.61 117.962 1968.61 115.183V40.8172C1968.61 18.2745 1986.51 0 2008.58 0C2030.65 0 2048.55 18.2745 2048.55 40.8172V115.183C2048.55 117.962 2050.75 120.215 2053.47 120.215C2056.2 120.215 2058.4 117.962 2058.4 115.183V40.8172C2058.4 18.2745 2076.3 0 2098.37 0V35.785C2095.65 35.785 2093.44 38.0382 2093.44 40.8172V115.183C2093.44 137.725 2075.55 156 2053.47 156C2031.4 156 2013.51 137.725 2013.51 115.183V40.8172C2013.51 38.0382 2011.3 35.785 2008.58 35.785C2005.86 35.785 2003.65 38.0382 2003.65 40.8172V115.183C2003.65 137.725 1985.76 156 1963.68 156C1941.61 156 1923.72 137.725 1923.72 115.183V40.8172C1923.72 38.0382 1921.51 35.785 1918.79 35.785C1916.07 35.785 1913.86 38.0382 1913.86 40.8172V115.183C1913.86 137.725 1895.97 156 1873.89 156C1851.82 156 1833.93 137.725 1833.93 115.183V40.8172Z" fill="#5B91F6"/>
</svg>
