<svg width="50" height="50" viewBox="0 0 50 50" fill="none" xmlns="http://www.w3.org/2000/svg">
<path fill-rule="evenodd" clip-rule="evenodd" d="M8.125 5.2085C7.62772 5.2085 7.15081 5.40604 6.79917 5.75767C6.44754 6.1093 6.25 6.58622 6.25 7.0835V36.6543C6.25 37.1516 6.44754 37.6285 6.79917 37.9802C7.15081 38.3318 7.62772 38.5293 8.125 38.5293H16.7V44.8418C16.7008 45.1297 16.7868 45.4108 16.9471 45.6499C17.1074 45.889 17.3348 46.0753 17.6008 46.1853C17.8668 46.2954 18.1594 46.3243 18.4417 46.2683C18.7241 46.2124 18.9836 46.0741 19.1875 45.871L26.5312 38.5293H36.2042C36.7013 38.5289 37.1779 38.3311 37.5292 37.9793L43.2 32.3085C43.5517 31.9572 43.7496 31.4806 43.75 30.9835V7.0835C43.75 6.58622 43.5525 6.1093 43.2008 5.75767C42.8492 5.40604 42.3723 5.2085 41.875 5.2085H8.125ZM23.3729 16.0418C23.3729 15.6274 23.2083 15.23 22.9153 14.937C22.6222 14.644 22.2248 14.4793 21.8104 14.4793C21.396 14.4793 20.9986 14.644 20.7056 14.937C20.4125 15.23 20.2479 15.6274 20.2479 16.0418V24.9418C20.2479 25.3562 20.4125 25.7537 20.7056 26.0467C20.9986 26.3397 21.396 26.5043 21.8104 26.5043C22.2248 26.5043 22.6222 26.3397 22.9153 26.0467C23.2083 25.7537 23.3729 25.3562 23.3729 24.9418V16.0418ZM33.8229 16.0418C33.8229 15.6274 33.6583 15.23 33.3653 14.937C33.0722 14.644 32.6748 14.4793 32.2604 14.4793C31.846 14.4793 31.4486 14.644 31.1556 14.937C30.8625 15.23 30.6979 15.6274 30.6979 16.0418V24.9418C30.6979 25.3562 30.8625 25.7537 31.1556 26.0467C31.4486 26.3397 31.846 26.5043 32.2604 26.5043C32.6748 26.5043 33.0722 26.3397 33.3653 26.0467C33.6583 25.7537 33.8229 25.3562 33.8229 24.9418V16.0418Z" fill="white"/>
</svg>
